<svg width="24" height="24" viewBox="0 0 24 24" fill="none" xmlns="http://www.w3.org/2000/svg">
<mask id="mask0_372_4838" style="mask-type:alpha" maskUnits="userSpaceOnUse" x="0" y="0" width="24" height="24">
<rect width="24" height="24" fill="#D9D9D9"/>
</mask>
<g mask="url(#mask0_372_4838)">
<path d="M7.70027 20.9217C5.99877 20.1017 4.62535 18.8903 3.58002 17.2877C2.53452 15.685 2.01177 13.8929 2.01177 11.9114C2.01177 11.5219 2.0296 11.1377 2.06527 10.7589C2.10093 10.3801 2.16077 10.0106 2.24477 9.65041L1.17852 10.2777L0.0410156 8.31941L5.04927 5.43191L7.93677 10.4152L5.95352 11.5527L4.73502 9.43591C4.58768 9.82207 4.4771 10.2219 4.40327 10.6354C4.3296 11.0491 4.29277 11.4764 4.29277 11.9174C4.29277 13.4462 4.70552 14.8433 5.53102 16.1087C6.35652 17.3738 7.45877 18.3171 8.83777 18.9384L7.70027 20.9217ZM15.3025 9.11341V6.83841H17.7645C17.0337 5.99607 16.1694 5.34332 15.1718 4.88016C14.1741 4.41682 13.1168 4.18516 11.9998 4.18516C11.1509 4.18516 10.346 4.31291 9.58502 4.56841C8.82418 4.82391 8.12402 5.18407 7.48452 5.64891L6.34702 3.65966C7.16052 3.11216 8.04193 2.68374 8.99127 2.37441C9.94077 2.06491 10.9436 1.91016 11.9998 1.91016C13.2726 1.91016 14.4911 2.14207 15.6553 2.60591C16.8194 3.06974 17.8685 3.74041 18.8025 4.61791V3.33841H21.0775V9.11341H15.3025ZM14.8975 23.9999L9.88952 21.1124L12.777 16.1292L14.735 17.2667L13.4715 19.4477C15.2748 19.1047 16.7648 18.227 17.9415 16.8147C19.1183 15.4023 19.7068 13.7635 19.7068 11.8982C19.7068 11.7588 19.7036 11.6289 19.6973 11.5084C19.6909 11.3879 19.6751 11.2642 19.6498 11.1374H21.9438C21.9564 11.2642 21.9659 11.3879 21.9723 11.5084C21.9786 11.6289 21.9818 11.7588 21.9818 11.8982C21.9818 14.0925 21.3358 16.0652 20.044 17.8162C18.7522 19.5673 17.0652 20.7692 14.983 21.4217L16.041 22.0417L14.8975 23.9999Z" fill="#0E0E19" fill-opacity="0.9"/>
</g>
</svg>
